<svg width="246" height="47" viewBox="0 0 246 47" fill="none" xmlns="http://www.w3.org/2000/svg">
<path fill-rule="evenodd" clip-rule="evenodd" d="M5.00159 35.6499V16.7995H8.33464V35.6499C8.33464 36.0345 8.51022 36.4033 8.82275 36.6752C9.13529 36.9472 9.55918 37.0999 10.0012 37.0999H39.9986C40.4406 37.0999 40.8645 36.9472 41.1771 36.6752C41.4896 36.4033 41.6652 36.0345 41.6652 35.6499V16.7995H44.9982V35.6499C44.9982 36.8036 44.4715 37.9101 43.5339 38.7259C42.5963 39.5417 41.3246 40 39.9986 40H10.0012C8.6752 40 7.40353 39.5417 6.46593 38.7259C5.52833 37.9101 5.00159 36.8036 5.00159 35.6499ZM41.6652 3.74917V13.8994L34.9991 8.09927V3.74917C34.9991 3.36459 35.1746 2.99577 35.4872 2.72384C35.7997 2.4519 36.2236 2.29913 36.6656 2.29913H39.9986C40.4406 2.29913 40.8645 2.4519 41.1771 2.72384C41.4896 2.99577 41.6652 3.36459 41.6652 3.74917Z" fill="black"/>
<path fill-rule="evenodd" clip-rule="evenodd" d="M22.6435 0.8491C23.2686 0.305422 24.1162 0 25 0C25.8838 0 26.7314 0.305422 27.3565 0.8491L49.5113 20.1229C49.8242 20.3952 50 20.7645 50 21.1496C50 21.5346 49.8242 21.9039 49.5113 22.1762C49.1983 22.4485 48.7739 22.6014 48.3314 22.6014C47.8888 22.6014 47.4644 22.4485 47.1515 22.1762L25 2.89945L2.84853 22.1762C2.5356 22.4485 2.11118 22.6014 1.66863 22.6014C1.22608 22.6014 0.80166 22.4485 0.488731 22.1762C0.175802 21.9039 0 21.5346 0 21.1496C0 20.7645 0.175802 20.3952 0.488731 20.1229L22.6435 0.8491Z" fill="black"/>
<path d="M30.3125 26.5148V28.6613H19.5391V26.5148H30.3125ZM19.9492 17.9562V37.8625H17.3105V17.9562H19.9492ZM32.6094 17.9562V37.8625H29.9844V17.9562H32.6094Z" fill="black"/>
<path d="M63.6367 27.418V28.6758C63.6367 30.1706 63.4499 31.5104 63.0762 32.6953C62.7025 33.8802 62.1647 34.8874 61.4629 35.7168C60.7611 36.5462 59.918 37.1797 58.9336 37.6172C57.9583 38.0547 56.8646 38.2734 55.6523 38.2734C54.4766 38.2734 53.3965 38.0547 52.4121 37.6172C51.4368 37.1797 50.5892 36.5462 49.8691 35.7168C49.1582 34.8874 48.6068 33.8802 48.2148 32.6953C47.8229 31.5104 47.627 30.1706 47.627 28.6758V27.418C47.627 25.9232 47.8184 24.5879 48.2012 23.4121C48.5931 22.2272 49.1445 21.2201 49.8555 20.3906C50.5664 19.5521 51.4095 18.9141 52.3848 18.4766C53.3691 18.0391 54.4492 17.8203 55.625 17.8203C56.8372 17.8203 57.931 18.0391 58.9062 18.4766C59.8906 18.9141 60.7337 19.5521 61.4355 20.3906C62.1465 21.2201 62.6888 22.2272 63.0625 23.4121C63.4453 24.5879 63.6367 25.9232 63.6367 27.418ZM61.0254 28.6758V27.3906C61.0254 26.2057 60.9023 25.1576 60.6562 24.2461C60.4193 23.3346 60.0684 22.569 59.6035 21.9492C59.1387 21.3294 58.569 20.86 57.8945 20.541C57.2292 20.222 56.4727 20.0625 55.625 20.0625C54.8047 20.0625 54.0618 20.222 53.3965 20.541C52.7402 20.86 52.1751 21.3294 51.7012 21.9492C51.2363 22.569 50.8763 23.3346 50.6211 24.2461C50.3659 25.1576 50.2383 26.2057 50.2383 27.3906V28.6758C50.2383 29.8698 50.3659 30.9271 50.6211 31.8477C50.8763 32.7591 51.2409 33.5293 51.7148 34.1582C52.1979 34.778 52.7676 35.2474 53.4238 35.5664C54.0892 35.8854 54.832 36.0449 55.6523 36.0449C56.5091 36.0449 57.2702 35.8854 57.9355 35.5664C58.6009 35.2474 59.1615 34.778 59.6172 34.1582C60.082 33.5293 60.4329 32.7591 60.6699 31.8477C60.9069 30.9271 61.0254 29.8698 61.0254 28.6758ZM68.4219 18.0938H70.9785L77.5 34.3223L84.0078 18.0938H86.5781L78.4844 38H76.4883L68.4219 18.0938ZM67.5879 18.0938H69.8438L70.2129 30.2344V38H67.5879V18.0938ZM85.1426 18.0938H87.3984V38H84.7734V30.2344L85.1426 18.0938ZM104.68 35.8535V38H94.1387V35.8535H104.68ZM94.6719 18.0938V38H92.0332V18.0938H94.6719ZM103.285 26.6523V28.7988H94.1387V26.6523H103.285ZM104.543 18.0938V20.2539H94.1387V18.0938H104.543ZM118.557 32.9688C118.557 32.5039 118.484 32.0938 118.338 31.7383C118.201 31.3737 117.955 31.0456 117.6 30.7539C117.253 30.4622 116.77 30.1842 116.15 29.9199C115.54 29.6556 114.765 29.3867 113.826 29.1133C112.842 28.8216 111.953 28.498 111.16 28.1426C110.367 27.778 109.688 27.3633 109.123 26.8984C108.558 26.4336 108.125 25.9004 107.824 25.2988C107.523 24.6973 107.373 24.0091 107.373 23.2344C107.373 22.4596 107.533 21.7441 107.852 21.0879C108.171 20.4316 108.626 19.862 109.219 19.3789C109.82 18.8867 110.536 18.5039 111.365 18.2305C112.195 17.957 113.12 17.8203 114.141 17.8203C115.635 17.8203 116.902 18.1074 117.941 18.6816C118.99 19.2467 119.787 19.9896 120.334 20.9102C120.881 21.8216 121.154 22.7969 121.154 23.8359H118.529C118.529 23.0885 118.37 22.4277 118.051 21.8535C117.732 21.2702 117.249 20.8145 116.602 20.4863C115.954 20.1491 115.134 19.9805 114.141 19.9805C113.202 19.9805 112.427 20.1217 111.816 20.4043C111.206 20.6868 110.75 21.0697 110.449 21.5527C110.158 22.0358 110.012 22.5872 110.012 23.207C110.012 23.6263 110.098 24.0091 110.271 24.3555C110.454 24.6927 110.732 25.0072 111.105 25.2988C111.488 25.5905 111.971 25.8594 112.555 26.1055C113.147 26.3516 113.854 26.5885 114.674 26.8164C115.804 27.1354 116.779 27.4909 117.6 27.8828C118.42 28.2747 119.094 28.7168 119.623 29.209C120.161 29.6921 120.557 30.2435 120.812 30.8633C121.077 31.474 121.209 32.1667 121.209 32.9414C121.209 33.7526 121.045 34.4863 120.717 35.1426C120.389 35.7988 119.919 36.3594 119.309 36.8242C118.698 37.2891 117.964 37.6491 117.107 37.9043C116.26 38.1504 115.312 38.2734 114.264 38.2734C113.343 38.2734 112.436 38.1458 111.543 37.8906C110.659 37.6354 109.852 37.2526 109.123 36.7422C108.403 36.2318 107.824 35.6029 107.387 34.8555C106.958 34.099 106.744 33.224 106.744 32.2305H109.369C109.369 32.9141 109.501 33.502 109.766 33.9941C110.03 34.4772 110.39 34.8783 110.846 35.1973C111.311 35.5163 111.835 35.7533 112.418 35.9082C113.01 36.054 113.626 36.127 114.264 36.127C115.184 36.127 115.964 35.9993 116.602 35.7441C117.24 35.4889 117.723 35.1243 118.051 34.6504C118.388 34.1764 118.557 33.6159 118.557 32.9688ZM131.928 18.0938V38H129.33V18.0938H131.928ZM138.326 18.0938V20.2539H122.945V18.0938H138.326ZM156.223 27.418V28.6758C156.223 30.1706 156.036 31.5104 155.662 32.6953C155.288 33.8802 154.751 34.8874 154.049 35.7168C153.347 36.5462 152.504 37.1797 151.52 37.6172C150.544 38.0547 149.451 38.2734 148.238 38.2734C147.062 38.2734 145.982 38.0547 144.998 37.6172C144.023 37.1797 143.175 36.5462 142.455 35.7168C141.744 34.8874 141.193 33.8802 140.801 32.6953C140.409 31.5104 140.213 30.1706 140.213 28.6758V27.418C140.213 25.9232 140.404 24.5879 140.787 23.4121C141.179 22.2272 141.73 21.2201 142.441 20.3906C143.152 19.5521 143.995 18.9141 144.971 18.4766C145.955 18.0391 147.035 17.8203 148.211 17.8203C149.423 17.8203 150.517 18.0391 151.492 18.4766C152.477 18.9141 153.32 19.5521 154.021 20.3906C154.732 21.2201 155.275 22.2272 155.648 23.4121C156.031 24.5879 156.223 25.9232 156.223 27.418ZM153.611 28.6758V27.3906C153.611 26.2057 153.488 25.1576 153.242 24.2461C153.005 23.3346 152.654 22.569 152.189 21.9492C151.725 21.3294 151.155 20.86 150.48 20.541C149.815 20.222 149.059 20.0625 148.211 20.0625C147.391 20.0625 146.648 20.222 145.982 20.541C145.326 20.86 144.761 21.3294 144.287 21.9492C143.822 22.569 143.462 23.3346 143.207 24.2461C142.952 25.1576 142.824 26.2057 142.824 27.3906V28.6758C142.824 29.8698 142.952 30.9271 143.207 31.8477C143.462 32.7591 143.827 33.5293 144.301 34.1582C144.784 34.778 145.354 35.2474 146.01 35.5664C146.675 35.8854 147.418 36.0449 148.238 36.0449C149.095 36.0449 149.856 35.8854 150.521 35.5664C151.187 35.2474 151.747 34.778 152.203 34.1582C152.668 33.5293 153.019 32.7591 153.256 31.8477C153.493 30.9271 153.611 29.8698 153.611 28.6758ZM160.174 18.0938H166.764C168.258 18.0938 169.521 18.3216 170.551 18.7773C171.59 19.2331 172.378 19.9076 172.916 20.8008C173.463 21.6849 173.736 22.7741 173.736 24.0684C173.736 24.9798 173.549 25.8138 173.176 26.5703C172.811 27.3177 172.283 27.9557 171.59 28.4844C170.906 29.0039 170.086 29.3913 169.129 29.6465L168.391 29.9336H162.197L162.17 27.7871H166.846C167.794 27.7871 168.582 27.623 169.211 27.2949C169.84 26.9577 170.314 26.5065 170.633 25.9414C170.952 25.3763 171.111 24.752 171.111 24.0684C171.111 23.3027 170.961 22.6328 170.66 22.0586C170.359 21.4844 169.885 21.0423 169.238 20.7324C168.6 20.4134 167.775 20.2539 166.764 20.2539H162.812V38H160.174V18.0938ZM171.809 38L166.969 28.9766L169.717 28.9629L174.625 37.8359V38H171.809ZM190.074 35.8535V38H179.533V35.8535H190.074ZM180.066 18.0938V38H177.428V18.0938H180.066ZM188.68 26.6523V28.7988H179.533V26.6523H188.68ZM189.938 18.0938V20.2539H179.533V18.0938H189.938Z" fill="black"/>
</svg>
